<svg width="178" height="156" viewBox="0 0 178 156" fill="none" xmlns="http://www.w3.org/2000/svg">
<path d="M176.571 23.4032V154.264L88.8902 145.058L88.7857 145.047L88.6813 145.058L1 154.264V23.4032L88.7857 5.45994L176.571 23.4032Z" fill="#6562A2" stroke="#26218C" stroke-width="2"/>
<path d="M87.7856 5.6632V136.468L74.2273 134.565C67.0978 133.564 59.8338 134.215 52.9956 136.466L37.4314 141.591C30.4677 143.884 23.1831 145.053 15.8516 145.053H12.542V8.48208L14.8102 9.22397C17.0277 9.94931 19.4086 10.0125 21.6615 9.40568L45.8443 2.89248C50.5084 1.6363 55.3176 1 60.1478 1H62.8936C65.9936 1 69.0835 1.35157 72.1043 2.04798L87.7856 5.6632Z" fill="white" fill-opacity="0.5" stroke="#26218C" stroke-width="2"/>
<path d="M87.7856 5.44948V130.201L73.7534 128.321C66.9305 127.407 59.99 128.003 53.4228 130.067L37.0257 135.22C30.3318 137.323 23.3561 138.394 16.3395 138.394H12.542V8.13879L14.952 8.89114C17.0817 9.55598 19.3546 9.61393 21.5154 9.05849L46.1282 2.73173C50.6016 1.58182 55.2021 1 59.8209 1H63.1063C66.0691 1 69.0232 1.32116 71.9168 1.95785L87.7856 5.44948Z" fill="white" fill-opacity="0.5" stroke="#26218C" stroke-width="2"/>
<path d="M89.7847 5.6632V136.468L103.343 134.565C110.472 133.564 117.737 134.215 124.575 136.466L140.139 141.591C147.103 143.884 154.387 145.053 161.719 145.053H165.028V8.48208L162.76 9.22397C160.543 9.94931 158.162 10.0125 155.909 9.40568L131.726 2.89248C127.062 1.6363 122.253 1 117.422 1H114.677C111.577 1 108.487 1.35157 105.466 2.04798L89.7847 5.6632Z" fill="white" fill-opacity="0.5" stroke="#26218C" stroke-width="2"/>
<path d="M89.7847 5.44948V130.201L103.817 128.321C110.64 127.407 117.58 128.003 124.148 130.067L140.545 135.22C147.239 137.323 154.214 138.394 161.231 138.394H165.028V8.13879L162.618 8.89114C160.489 9.55598 158.216 9.61393 156.055 9.05849L131.442 2.73173C126.969 1.58182 122.368 1 117.749 1H114.464C111.501 1 108.547 1.32116 105.653 1.95785L89.7847 5.44948Z" fill="white" fill-opacity="0.5" stroke="#26218C" stroke-width="2"/>
<path d="M80.9072 136.301C80.9072 134.692 81.7214 133.191 83.0709 132.314L87.615 129.361C88.3269 128.898 89.2447 128.898 89.9566 129.361L94.5007 132.314C95.8502 133.191 96.6644 134.692 96.6644 136.301C96.6644 138.927 94.5354 141.056 91.9091 141.056H85.6625C83.0362 141.056 80.9072 138.927 80.9072 136.301Z" fill="white" stroke="#26218C" stroke-width="2"/>
<mask id="path-7-inside-1_23_37" fill="white">
<path d="M75.4673 146.052C75.4673 143.845 77.2561 142.056 79.4626 142.056H98.1077C100.314 142.056 102.103 143.845 102.103 146.052C102.103 148.258 100.314 150.047 98.1076 150.047H79.4626C77.2561 150.047 75.4673 148.258 75.4673 146.052Z"/>
</mask>
<path d="M75.4673 146.052C75.4673 143.845 77.2561 142.056 79.4626 142.056H98.1077C100.314 142.056 102.103 143.845 102.103 146.052C102.103 148.258 100.314 150.047 98.1076 150.047H79.4626C77.2561 150.047 75.4673 148.258 75.4673 146.052Z" fill="#26218C"/>
<path d="M75.4673 142.056H102.103H75.4673ZM102.103 146.052C102.103 149.363 99.4188 152.047 96.1076 152.047H81.4626C78.1515 152.047 75.4673 149.363 75.4673 146.052V146.052C75.4673 147.154 77.2561 148.047 79.4626 148.047H98.1076C100.314 148.047 102.103 147.154 102.103 146.052V146.052ZM75.4673 150.047V142.056V150.047ZM102.103 142.056V150.047V142.056Z" fill="#26218C" mask="url(#path-7-inside-1_23_37)"/>
<mask id="path-9-inside-2_23_37" fill="white">
<path d="M75.4673 145.608C75.4673 143.646 77.0573 142.056 79.0187 142.056H98.5516C100.513 142.056 102.103 143.646 102.103 145.608C102.103 147.569 100.513 149.159 98.5516 149.159H79.0187C77.0573 149.159 75.4673 147.569 75.4673 145.608Z"/>
</mask>
<path d="M75.4673 145.608C75.4673 143.646 77.0573 142.056 79.0187 142.056H98.5516C100.513 142.056 102.103 143.646 102.103 145.608C102.103 147.569 100.513 149.159 98.5516 149.159H79.0187C77.0573 149.159 75.4673 147.569 75.4673 145.608Z" fill="#6562A2"/>
<path d="M75.4673 142.056H102.103H75.4673ZM102.103 145.608C102.103 148.674 99.6175 151.159 96.5516 151.159H81.0187C77.9527 151.159 75.4673 148.674 75.4673 145.608V145.608C75.4673 146.465 77.0573 147.159 79.0187 147.159H98.5516C100.513 147.159 102.103 146.465 102.103 145.608V145.608ZM75.4673 149.159V142.056V149.159ZM102.103 142.056V149.159V142.056Z" fill="#26218C" mask="url(#path-9-inside-2_23_37)"/>
</svg>
