<svg width="37" height="49" viewBox="0 0 37 49" fill="none" xmlns="http://www.w3.org/2000/svg">
<path d="M7.68307 1.35881C10.8881 -0.491621 14.9864 0.606506 16.8368 3.81155L17.9259 5.69784C19.1749 7.86112 18.4337 10.6273 16.2704 11.8763C14.1071 13.1252 13.3659 15.8914 14.6149 18.0547L21.8123 30.521C23.1917 32.9102 22.3731 35.9653 19.9839 37.3447C17.5947 38.7241 14.5397 37.9055 13.1602 35.5163L2.59779 17.2216L1.14625 14.7074C0.116062 12.9231 -0.21291 10.8191 0.223439 8.80546C0.718699 6.51996 2.15603 4.54985 4.18127 3.38058L7.68307 1.35881Z" fill="#EAEAEA"/>
<path d="M34.3702 43.3328C36.5669 42.0645 37.3019 39.2251 36.0336 37.0284C34.7847 34.8651 32.0012 34.0939 29.8379 35.3428C27.6746 36.5918 24.9084 35.8506 23.6595 33.6873L20.2236 27.7363C18.8442 25.3471 15.7892 24.5285 13.4 25.9079C11.0108 27.2873 10.1922 30.3424 11.5716 32.7316L18.0252 43.9096L18.3873 44.5368C19.4769 46.424 21.3886 47.6907 23.5511 47.9585C25.051 48.1442 26.5706 47.8359 27.8794 47.0802L34.3702 43.3328Z" fill="#EAEAEA"/>
</svg>
