<svg width="54" height="40" viewBox="0 0 54 40" fill="none" xmlns="http://www.w3.org/2000/svg">
<path d="M21.1991 2.63035C19.8569 2.01088 20.2986 0 21.7768 0H31C32.1046 0 33 0.895431 33 2V14.5C33 16.5821 35.7849 17.2783 36.7647 15.4412L44.4353 1.05882C44.7829 0.407098 45.4614 0 46.2 0H52C53.1046 0 54 0.895431 54 2V8.78607C54 9.24776 53.8403 9.69522 53.5479 10.0525L46.1154 19.1367C45.4778 19.916 45.5189 21.0478 46.2114 21.7787L53.4519 29.4215C53.8038 29.7929 54 30.2852 54 30.7969V38C54 39.1046 53.1046 40 52 40H45.7241C45.2562 40 44.8032 39.836 44.4437 39.5364L36.2804 32.7336C34.9777 31.6481 33 32.5744 33 34.2701V38C33 39.1046 32.1046 40 31 40H22.2462C22.0827 40 21.9198 39.9799 21.7611 39.9403L17.4019 38.8505C14.0434 38.0108 11.3581 35.4939 10.303 32.1968L0.835058 2.60956C0.422089 1.31903 1.38491 0 2.7399 0H12.9203C13.8464 0 14.6514 0.635823 14.8659 1.53676L18.0544 14.9284C18.6038 17.2358 22 16.8371 22 14.4652V3.88209C22 3.34435 21.6873 2.8557 21.1991 2.63035Z" fill="#EAEAEA"/>
</svg>
